<svg width="35" height="36" viewBox="0 0 35 36" fill="none" xmlns="http://www.w3.org/2000/svg">
<path d="M27.125 16.25C22.7719 16.25 19.25 19.7719 19.25 24.125C19.25 28.4781 22.7719 32 27.125 32C31.4781 32 35 28.4781 35 24.125C35 19.7719 31.4781 16.25 27.125 16.25ZM30.625 24.4695C30.625 24.7594 30.3844 25 30.0945 25H26.7805C26.4906 25 26.25 24.7594 26.25 24.4695V20.2805C26.25 19.9906 26.4906 19.75 26.7805 19.75H27.4695C27.7594 19.75 28 19.9906 28 20.2805V23.25H30.0945C30.3844 23.25 30.625 23.4906 30.625 23.7805V24.4695ZM17.5 24.125C17.5 22.6047 17.8664 21.1664 18.4953 19.8867C18.0578 19.8047 17.6094 19.75 17.15 19.75H16.2367C15.0227 20.3078 13.6719 20.625 12.25 20.625C10.8281 20.625 9.48281 20.3078 8.26328 19.75H7.35C3.29219 19.75 0 23.0422 0 27.1V29.375C0 30.8242 1.17578 32 2.625 32H21.607C19.1297 30.2555 17.5 27.3789 17.5 24.125ZM12.25 18C16.1164 18 19.25 14.8664 19.25 11C19.25 7.13359 16.1164 4 12.25 4C8.38359 4 5.25 7.13359 5.25 11C5.25 14.8664 8.38359 18 12.25 18Z" fill="#FF6900"/>
</svg>
