<svg width="35" height="36" viewBox="0 0 35 36" fill="none" xmlns="http://www.w3.org/2000/svg">
<g clip-path="url(#clip0_910_309)">
<path d="M3.00781 13.625H31.9922C32.4434 13.625 32.8125 13.9941 32.8125 14.4453V32.2188C32.8125 34.0303 31.3428 35.5 29.5312 35.5H5.46875C3.65723 35.5 2.1875 34.0303 2.1875 32.2188V14.4453C2.1875 13.9941 2.55664 13.625 3.00781 13.625ZM32.8125 10.6172V8.15625C32.8125 6.34473 31.3428 4.875 29.5312 4.875H26.25V1.32031C26.25 0.869141 25.8809 0.5 25.4297 0.5H22.6953C22.2441 0.5 21.875 0.869141 21.875 1.32031V4.875H13.125V1.32031C13.125 0.869141 12.7559 0.5 12.3047 0.5H9.57031C9.11914 0.5 8.75 0.869141 8.75 1.32031V4.875H5.46875C3.65723 4.875 2.1875 6.34473 2.1875 8.15625V10.6172C2.1875 11.0684 2.55664 11.4375 3.00781 11.4375H31.9922C32.4434 11.4375 32.8125 11.0684 32.8125 10.6172Z" fill="#FF6900"/>
</g>
<defs>
<clipPath id="clip0_910_309">
<rect width="35" height="35" fill="white" transform="translate(0 0.5)"/>
</clipPath>
</defs>
</svg>
