<svg width="17" height="16" viewBox="0 0 17 16" fill="none" xmlns="http://www.w3.org/2000/svg">
<path d="M7.57668 1.21993C7.91827 0.398636 9.08173 0.398636 9.42332 1.21993L10.9105 4.79546C11.0545 5.1417 11.3801 5.37827 11.7539 5.40823L15.614 5.7177C16.5006 5.78878 16.8601 6.89529 16.1846 7.47396L13.2436 9.99322C12.9588 10.2372 12.8345 10.6199 12.9215 10.9847L13.82 14.7515C14.0264 15.6167 13.0851 16.3006 12.326 15.8369L9.02125 13.8184C8.70124 13.6229 8.29876 13.6229 7.97875 13.8184L4.67397 15.8369C3.91487 16.3006 2.97362 15.6167 3.18001 14.7515L4.07852 10.9847C4.16553 10.6199 4.04116 10.2372 3.75637 9.99322L0.815391 7.47396C0.139854 6.89529 0.49938 5.78878 1.38603 5.7177L5.24612 5.40823C5.61991 5.37827 5.94552 5.1417 6.08953 4.79546L7.57668 1.21993Z" fill="#FE9A00"/>
</svg>
